
<svg xmlns:xlink="http://www.w3.org/1999/xlink" role="none" aria-hidden="true" class="mn-community-summary__entity-info-icon" xmlns="http://www.w3.org/2000/svg" width="24" height="24" viewBox="0 0 24 24" data-supported-dps="24x24" data-test-icon="person-medium"><defs><svg xmlns="http://www.w3.org/2000/svg" viewBox="0 0 24 24" id="person-medium" aria-hidden="true" role="none" data-supported-dps="24x24" fill="#000000" fill-opacity="0.9">
  <path d="M7 7a5 5 0 115 5 5 5 0 01-5-5zm7 7h-4a3 3 0 00-3 3v5h10v-5a3 3 0 00-3-3z" fill-opacity="0.9"></path>
</svg></defs>
<!---->    
    <g stroke="#000000" fill="#000000" fill-opacity="0" stroke-opacity="0">
  <path d="M7 7a5 5 0 115 5 5 5 0 01-5-5zm7 7h-4a3 3 0 00-3 3v5h10v-5a3 3 0 00-3-3z" fill-opacity="0.9"></path>
</g>
</svg>