<svg xmlns:xlink="http://www.w3.org/1999/xlink" role="none" aria-hidden="true" class="mn-community-summary__entity-info-icon" xmlns="http://www.w3.org/2000/svg" width="24" height="24" viewBox="0 0 24 24" data-supported-dps="24x24" data-test-icon="group-medium"><defs><svg xmlns="http://www.w3.org/2000/svg" viewBox="0 0 24 24" id="group-medium" aria-hidden="true" role="none" data-supported-dps="24x24" fill="#000000" fill-opacity="0.9">
  <path d="M15 13.25V21H9v-7.75A2.25 2.25 0 0111.25 11h1.5A2.25 2.25 0 0115 13.25zm5-.25h-1a2 2 0 00-2 2v6h5v-6a2 2 0 00-2-2zM12 3a3 3 0 103 3 3 3 0 00-3-3zm7.5 8A2.5 2.5 0 1017 8.5a2.5 2.5 0 002.5 2.5zM5 13H4a2 2 0 00-2 2v6h5v-6a2 2 0 00-2-2zm-.5-7A2.5 2.5 0 107 8.5 2.5 2.5 0 004.5 6z" fill-opacity="0.9"></path>
</svg></defs>
<!---->    
    <g stroke="#000000" fill="#000000" fill-opacity="0" stroke-opacity="0">
  <path d="M15 13.25V21H9v-7.75A2.25 2.25 0 0111.25 11h1.5A2.25 2.25 0 0115 13.25zm5-.25h-1a2 2 0 00-2 2v6h5v-6a2 2 0 00-2-2zM12 3a3 3 0 103 3 3 3 0 00-3-3zm7.5 8A2.5 2.5 0 1017 8.5a2.5 2.5 0 002.5 2.5zM5 13H4a2 2 0 00-2 2v6h5v-6a2 2 0 00-2-2zm-.5-7A2.5 2.5 0 107 8.5 2.5 2.5 0 004.5 6z" fill-opacity="0.9"></path>
</g>
</svg>